<?xml version="1.0" encoding="utf-8"?>
<!-- Generator: Adobe Illustrator 16.0.0, SVG Export Plug-In . SVG Version: 6.00 Build 0)  -->
<!DOCTYPE svg PUBLIC "-//W3C//DTD SVG 1.1//EN" "http://www.w3.org/Graphics/SVG/1.1/DTD/svg11.dtd">
<svg version="1.1" id="Layer_1" xmlns="http://www.w3.org/2000/svg" xmlns:xlink="http://www.w3.org/1999/xlink" x="0px" y="0px"
	 width="123.521px" height="79.018px" viewBox="0 0 123.521 79.018" enable-background="new 0 0 123.521 79.018"
	 xml:space="preserve">
<g>
	<path d="M117.599,50.794c-3.527,0-6.216,2.142-6.216,5.082c0,5.838,10.248,4.703,10.248,9.281c0,2.479-2.31,3.822-4.872,3.822
		c-2.31,0-4.326-0.798-5.88-1.848l-0.168,2.016c1.47,0.882,3.738,1.512,5.964,1.512c3.528,0,6.847-2.058,6.847-5.712
		c0-5.754-10.29-4.788-10.29-9.155c0-2.059,1.932-3.318,4.325-3.318c1.891,0,3.36,0.588,4.578,1.428l0.63-1.722
		C121.631,51.508,119.909,50.794,117.599,50.794 M108.233,68.014c-0.757,0.462-1.723,0.924-2.94,0.924
		c-1.806,0-2.898-0.924-2.898-3.15V52.81h5.334c0-0.714,0.043-1.092,0.127-1.596h-5.461v-4.662l-1.554,0.378l-0.252,4.284h-2.688
		l-0.546,1.596h3.191v13.272c0,2.855,1.428,4.535,4.326,4.535c1.428,0,2.52-0.42,3.276-0.966L108.233,68.014z M95.633,52.684
		c-1.26-1.008-3.443-1.89-6.048-1.89c-6.048,0-9.912,4.704-9.912,10.332c0,5.502,3.78,9.575,9.534,9.575
		c2.688,0,4.578-0.756,6.468-2.1l0.084-2.058c-1.722,1.512-3.737,2.478-6.342,2.478c-4.536,0-7.938-3.065-7.938-8.147
		c0-4.452,3.066-8.4,8.022-8.4c2.352,0,4.326,0.924,5.544,1.932L95.633,52.684z M61.865,59.362c0.546-3.779,3.234-6.972,7.182-6.972
		c3.696,0,5.796,2.478,6.09,6.636L61.865,59.362z M76.901,59.656c0-4.998-2.562-8.861-7.645-8.861
		c-5.586,0-9.324,4.577-9.324,10.458c0,5.334,3.486,9.449,8.988,9.449c3.234,0,5.376-1.134,7.182-2.478l0.084-1.974
		c-1.848,1.554-3.989,2.771-6.972,2.771c-4.451,0-7.476-2.939-7.434-8.189l13.818-0.337L76.901,59.656z M55.776,44.662
		c0-0.756-0.546-1.428-1.428-1.428c-0.924,0-1.554,0.672-1.554,1.512c0,0.757,0.588,1.471,1.47,1.471
		C55.188,46.216,55.776,45.502,55.776,44.662 M55.272,51.088c-0.63,0.084-1.428,0.126-2.1,0.126c0.126,1.806,0.21,4.872,0.21,7.308
		V73.39c0,2.981-0.966,3.906-2.562,3.948c-0.504,0-0.882-0.084-1.302-0.168l0.21,1.638c0.336,0.126,0.924,0.21,1.47,0.21
		c2.184,0,3.99-1.344,3.99-5.712V56.17C55.188,55.75,55.23,51.424,55.272,51.088 M47.544,60.538c0,4.704-3.066,8.484-7.728,8.484
		c-4.368,0-7.476-3.065-7.476-8.147c0-4.62,3.108-8.442,7.686-8.442C44.226,52.432,47.544,55.372,47.544,60.538 M49.35,60.244
		c0-5.376-3.654-9.449-9.156-9.449c-5.88,0-9.66,4.535-9.66,10.416c0,5.376,3.654,9.491,9.114,9.491
		C45.57,70.702,49.35,66.125,49.35,60.244 M28.644,50.794c-3.654,0.294-5.796,2.855-6.804,5.166l-0.252-4.914
		c-0.546,0.126-1.26,0.294-1.848,0.336c0.21,1.764,0.336,4.326,0.336,6.762v4.788c0,2.436-0.042,5.334-0.168,7.14h2.058
		c-0.042-1.386-0.084-2.855-0.084-4.326v-6.342c0-3.107,2.856-6.636,6.51-6.51L28.644,50.794z M14.406,48.946
		c0,4.032-3.066,7.015-9.912,7.015c-0.672,0-1.68-0.042-2.436-0.126v-13.65C3.234,42.142,4.536,42.1,5.586,42.1
		C11.424,42.1,14.406,44.368,14.406,48.946 M2.058,57.556c0.756,0.042,1.638,0.042,2.31,0.042c8.484,0,11.97-3.906,11.97-8.988
		c0-4.914-3.528-8.273-10.374-8.273c-2.058,0-4.578,0.126-5.964,0.168c0.126,2.016,0.168,7.476,0.168,10.164v9.281
		c0,2.73-0.042,8.106-0.168,10.122h2.142C2.1,68.896,2.058,65.62,2.058,64.024V57.556z"/>
	<path d="M75.263,30.534l2.059-0.504c-0.63-0.63-7.771-7.098-8.526-7.938l-2.562-2.353l10.123-8.651
		c-0.673,0.042-1.807,0.084-2.562,0.084c-0.378,0.504-8.021,6.888-9.576,8.357V5.124c0-2.016,0.042-4.788,0.084-5.124
		c-0.588,0.084-1.428,0.168-2.058,0.21c0.126,2.1,0.168,3.948,0.168,7.224v15.582c0,2.436-0.042,5.25-0.168,7.056h2.058
		c-0.042-1.092-0.084-2.771-0.084-4.242v-5.712L75.263,30.534z M57.498,12.684c-1.26-1.008-3.444-1.89-6.048-1.89
		c-6.048,0-9.912,4.704-9.912,10.332c0,5.502,3.78,9.575,9.534,9.575c2.688,0,4.578-0.756,6.468-2.1l0.084-2.058
		c-1.722,1.512-3.738,2.478-6.342,2.478c-4.536,0-7.938-3.065-7.938-8.147c0-4.452,3.066-8.4,8.022-8.4
		c2.352,0,4.326,0.924,5.544,1.932L57.498,12.684z M37.716,30.072c-0.126-1.848-0.21-4.788-0.21-7.224v-6.972
		c0-1.597,0-3.612,0.084-4.788c-0.63,0.084-1.344,0.126-2.1,0.126c0.126,2.058,0.168,4.578,0.168,6.762V23.1
		c0,2.016-3.906,5.964-7.308,5.964c-2.898,0-4.704-1.554-4.704-5.796v-7.392c0-1.597,0-3.612,0.084-4.788
		c-0.63,0.084-1.302,0.126-2.058,0.126c0.084,2.058,0.126,4.578,0.126,6.762v5.88c0,4.914,2.604,6.888,6.006,6.888
		c3.57,0,6.72-2.897,7.896-4.956l0.294,4.284H37.716z M2.058,13.776V2.226c0.966-0.042,2.436-0.084,4.2-0.084
		c5.88,0,8.106,2.184,8.106,5.628c0,3.36-2.562,6.006-8.106,6.006H2.058z M2.1,28.182c-0.042-1.092-0.042-2.814-0.042-4.158v-8.483
		c1.092-0.084,2.394-0.126,4.032-0.126c6.72,0,9.744,2.688,9.744,6.468c0,4.158-3.36,6.426-8.652,6.426
		C5.628,28.308,3.99,28.308,2.1,28.182 M7.266,30.072c6.468,0,10.5-3.275,10.5-8.273c0-3.57-2.31-6.469-7.224-7.351
		c3.696-0.882,5.754-3.569,5.754-6.93c0-3.906-2.73-7.14-9.87-7.14c-1.848,0-5.25,0.126-6.384,0.168
		C0.126,2.562,0.168,7.98,0.168,10.668v9.281c0,2.73-0.042,8.106-0.126,10.122H7.266z"/>
</g>
</svg>
