<?xml version="1.0" encoding="utf-8"?>
<!-- Generator: Adobe Illustrator 16.0.0, SVG Export Plug-In . SVG Version: 6.00 Build 0)  -->
<!DOCTYPE svg PUBLIC "-//W3C//DTD SVG 1.1//EN" "http://www.w3.org/Graphics/SVG/1.1/DTD/svg11.dtd">
<svg version="1.1" id="Layer_1" xmlns="http://www.w3.org/2000/svg" xmlns:xlink="http://www.w3.org/1999/xlink" x="0px" y="0px"
	 width="512px" height="512px" viewBox="0 0 512 512" enable-background="new 0 0 512 512" xml:space="preserve">
<g id="_x35_151e0c8492e5103c096af88a50059a5">
	<path fill="#FFFFFF" d="M66.084,0.5h379.819c36.079,0,65.597,29.505,65.597,65.584v379.819c0,36.079-29.518,65.597-65.597,65.597
		H66.084C30.005,511.5,0.5,481.982,0.5,445.903V66.084C0.5,30.005,30.005,0.5,66.084,0.5L66.084,0.5z M372.734,57.264
		c-12.65,0-23.006,10.355-23.006,23.005v55.067c0,12.65,10.354,23.005,23.006,23.005h57.762c12.65,0,23.005-10.354,23.005-23.005
		V80.269c0-12.65-10.354-23.005-23.005-23.005H372.734L372.734,57.264z M453.738,216.59h-44.976
		c4.254,13.897,6.55,28.606,6.55,43.852c0,84.996-71.11,153.898-158.838,153.898c-87.716,0-158.827-68.902-158.827-153.898
		c0-15.245,2.295-29.954,6.55-43.852H57.276v215.854c0,11.178,9.132,20.321,20.311,20.321h355.841
		c11.166,0,20.312-9.145,20.312-20.321L453.738,216.59L453.738,216.59z M256.475,155.447c-56.677,0-102.625,44.525-102.625,99.443
		c0,54.918,45.948,99.443,102.625,99.443c56.688,0,102.636-44.524,102.636-99.443C359.111,199.972,313.163,155.447,256.475,155.447z
		"/>
</g>
</svg>
